<?xml version="1.0" encoding="UTF-8" standalone="no"?>
<!-- Created with Inkscape (http://www.inkscape.org/) -->

<svg
   width="120"
   height="120"
   viewBox="0 0 120 120"
   version="1.1"
   id="svg1"
   inkscape:version="1.4.2 (f4327f4, 2025-05-13)"
   sodipodi:docname="dice_6.svg"
   xmlns:inkscape="http://www.inkscape.org/namespaces/inkscape"
   xmlns:sodipodi="http://sodipodi.sourceforge.net/DTD/sodipodi-0.dtd"
   xmlns="http://www.w3.org/2000/svg"
   xmlns:svg="http://www.w3.org/2000/svg">
  <sodipodi:namedview
     id="namedview1"
     pagecolor="#ffffff"
     bordercolor="#000000"
     borderopacity="0.25"
     inkscape:showpageshadow="2"
     inkscape:pageopacity="0.0"
     inkscape:pagecheckerboard="0"
     inkscape:deskcolor="#d1d1d1"
     inkscape:document-units="px"
     inkscape:zoom="2.8284271"
     inkscape:cx="-257.21009"
     inkscape:cy="20.682873"
     inkscape:window-width="3840"
     inkscape:window-height="2054"
     inkscape:window-x="-11"
     inkscape:window-y="-11"
     inkscape:window-maximized="1"
     inkscape:current-layer="layer1" />
  <defs
     id="defs1" />
  <g
     inkscape:label="Warstwa 1"
     inkscape:groupmode="layer"
     id="layer1">
    <rect
       style="fill:#ffffff;fill-opacity:1;stroke:#000000;stroke-width:5.97527;stroke-linecap:round;stroke-linejoin:round;stroke-miterlimit:0;stroke-dasharray:none;stroke-opacity:1"
       id="rect2"
       width="113.98931"
       height="114.00927"
       x="3.0248046"
       y="3.0008986" />
    <path
       style="fill:#000000;fill-opacity:1;stroke:#000000;stroke-width:3.16229;stroke-linecap:round;stroke-linejoin:round;stroke-miterlimit:0;stroke-dasharray:none;stroke-opacity:1"
       id="path3"
       sodipodi:type="arc"
       sodipodi:cx="32.755566"
       sodipodi:cy="93.992493"
       sodipodi:rx="10.733174"
       sodipodi:ry="10.733174"
       sodipodi:start="0"
       sodipodi:end="6.2572732"
       sodipodi:arc-type="slice"
       d="M 43.48874,93.992493 A 10.733174,10.733174 0 0 1 32.825095,104.72544 10.733174,10.733174 0 0 1 22.023292,94.131548 10.733174,10.733174 0 0 1 32.546989,83.261345 10.733174,10.733174 0 0 1 43.485137,93.714405 l -10.729571,0.278088 z" />
    <path
       style="fill:#000000;fill-opacity:1;stroke:#000000;stroke-width:3.16229;stroke-linecap:round;stroke-linejoin:round;stroke-miterlimit:0;stroke-dasharray:none;stroke-opacity:1"
       id="path4"
       sodipodi:type="arc"
       sodipodi:cx="32.487034"
       sodipodi:cy="60.005547"
       sodipodi:rx="10.733174"
       sodipodi:ry="10.733174"
       sodipodi:start="0"
       sodipodi:end="6.2572732"
       sodipodi:arc-type="slice"
       d="M 43.220208,60.005547 A 10.733174,10.733174 0 0 1 32.556563,70.738496 10.733174,10.733174 0 0 1 21.75476,60.144602 10.733174,10.733174 0 0 1 32.278458,49.274399 10.733174,10.733174 0 0 1 43.216605,59.727459 l -10.729571,0.278088 z" />
    <path
       style="fill:#000000;fill-opacity:1;stroke:#000000;stroke-width:3.16229;stroke-linecap:round;stroke-linejoin:round;stroke-miterlimit:0;stroke-dasharray:none;stroke-opacity:1"
       id="path5"
       sodipodi:type="arc"
       sodipodi:cx="87.571503"
       sodipodi:cy="93.792427"
       sodipodi:rx="10.733174"
       sodipodi:ry="10.733174"
       sodipodi:start="0"
       sodipodi:end="6.2572732"
       sodipodi:arc-type="slice"
       d="M 98.304677,93.792427 A 10.733174,10.733174 0 0 1 87.641032,104.52538 10.733174,10.733174 0 0 1 76.839229,93.931483 10.733174,10.733174 0 0 1 87.362926,83.06128 10.733174,10.733174 0 0 1 98.301074,93.514339 l -10.729571,0.278088 z" />
    <path
       style="fill:#000000;fill-opacity:1;stroke:#000000;stroke-width:3.16229;stroke-linecap:round;stroke-linejoin:round;stroke-miterlimit:0;stroke-dasharray:none;stroke-opacity:1"
       id="path6"
       sodipodi:type="arc"
       sodipodi:cx="86.596947"
       sodipodi:cy="60.005547"
       sodipodi:rx="10.733174"
       sodipodi:ry="10.733174"
       sodipodi:start="0"
       sodipodi:end="6.2572732"
       sodipodi:arc-type="slice"
       d="M 97.330121,60.005547 A 10.733174,10.733174 0 0 1 86.666476,70.738496 10.733174,10.733174 0 0 1 75.864673,60.144602 10.733174,10.733174 0 0 1 86.38837,49.274399 10.733174,10.733174 0 0 1 97.326518,59.727459 l -10.729571,0.278088 z" />
    <path
       style="fill:#000000;fill-opacity:1;stroke:#000000;stroke-width:3.16229;stroke-linecap:round;stroke-linejoin:round;stroke-miterlimit:0;stroke-dasharray:none;stroke-opacity:1"
       id="path8"
       sodipodi:type="arc"
       sodipodi:cx="86.456779"
       sodipodi:cy="26.156174"
       sodipodi:rx="10.733174"
       sodipodi:ry="10.733174"
       sodipodi:start="0"
       sodipodi:end="6.2572732"
       sodipodi:arc-type="slice"
       d="M 97.189954,26.156174 A 10.733174,10.733174 0 0 1 86.526309,36.889123 10.733174,10.733174 0 0 1 75.724506,26.295229 10.733174,10.733174 0 0 1 86.248203,15.425026 10.733174,10.733174 0 0 1 97.186351,25.878086 l -10.729572,0.278088 z" />
    <path
       style="fill:#000000;fill-opacity:1;stroke:#000000;stroke-width:3.16229;stroke-linecap:round;stroke-linejoin:round;stroke-miterlimit:0;stroke-dasharray:none;stroke-opacity:1"
       id="path9"
       sodipodi:type="arc"
       sodipodi:cx="32.259556"
       sodipodi:cy="26.479397"
       sodipodi:rx="10.733174"
       sodipodi:ry="10.733174"
       sodipodi:start="0"
       sodipodi:end="6.2572732"
       sodipodi:arc-type="slice"
       d="M 42.99273,26.479397 A 10.733174,10.733174 0 0 1 32.329085,37.212346 10.733174,10.733174 0 0 1 21.527282,26.618453 10.733174,10.733174 0 0 1 32.05098,15.748249 10.733174,10.733174 0 0 1 42.989127,26.201309 l -10.729571,0.278088 z" />
  </g>
</svg>
